<svg xmlns="http://www.w3.org/2000/svg" id="empty-waiting-small" width="128" height="128" aria-hidden="true" data-supported-dps="128x128" viewBox="0 0 128 128" data-token-id="94" class="_3229f384 _1c9aed6c dca08ee3" aria-label="" style="width: 128px; min-width: 128px; height: 128px; min-height: 128px;"><g display="var(--svgDisplayLight)"><path fill="#dbe7e9" d="M126.7 0C74.17 1.39 32 43.84 32 96h96V0z"></path><path fill="#fff" d="M119 37H94V4h25z"></path><path fill="#aeb48a" d="M115 32V19h-2.4a4 4 0 0 0-3.6 2.29l-2.47 5.17a3.9 3.9 0 0 0 3.6 5.54z"></path><path fill="#e4e8cc" d="m111 17.13-5.42 11.19a6.66 6.66 0 0 1-6 3.68H98v-9.66a3.47 3.47 0 0 1 3.53-3.4h4.56v-2.85a2.51 2.51 0 0 1 2.56-2.47 2.47 2.47 0 0 1 2.35 3.51"></path><path fill="#f5987e" d="M106 19h-8V8h8z"></path><rect width="8" height="5" x="107" y="8" fill="#aeb48a" rx="2.39" transform="rotate(-180 111 10.5)"></rect><path fill="#e4e8cc" d="M98 16.53A2.77 2.77 0 0 0 98 11z"></path><path fill="#fad296" d="M98 53h11v16H98z"></path><path fill="#7b9370" d="M116.52 61.22c1-15.29 6.47-21.6 8.47-20.36a1.59 1.59 0 0 1 .38 1.86c-.7 2.29-3.94 2.84-4.64 5.07-.14.74.2 1.54 0 2.26-.29.89-1.35 1.36-1.6 2.26s.3 1.74 0 2.57-2 2-2.23 3.07l-.39 3.27z" style="isolation: isolate;"></path><path fill="#7b9370" d="M117.12 59.77c.8-4.94 5.93-7.32 6.48-6.66a.7.7 0 0 1 0 1c-.52.54-1.52.41-2 1.07-.26.41-.16 1-.48 1.37s-.53.33-.74.56c-.38.65-.53 1.15-1.38 1.35s-1.79.43-1.87 1.31zm-1.29.36c-1.09-9.93-5.06-12.89-5.06-12.89a1.05 1.05 0 0 0-1.67 1.23c.48 1.22 1.91 1.76 2.52 2.89a2.8 2.8 0 0 1 .27 2 1 1 0 0 0 .37.94 5.6 5.6 0 0 1 .87.81c.34.54.19 1.27.5 1.83s.79.73 1.21 1.08a3 3 0 0 1 1 2.12z" style="isolation: isolate;"></path><path fill="#7b9370" d="M115.46 59.67a7.62 7.62 0 0 0-4-3.1 3 3 0 0 0-.57-.08.57.57 0 0 0-.23 1c.41.4 1.16-.11 1.44.36-.15 1.23 1.2.64 2 .81a2.35 2.35 0 0 1 1.44 1z" style="isolation: isolate;"></path><path fill="#7b9370" d="M115.71 62.67c.61-4 .89-7.57 1.34-11.18a17.1 17.1 0 0 0 .25-4.76c-.49-2.44-.68-2.6-.4-4.51.54-3.69-.16-4.67-.74-5.76-.36-.66-1.5-1.29-2.16-.67-1.55 1.94 1.89 4.72.59 6.66a1.13 1.13 0 0 0-.64.77c-.67 2.61 3.47 5 1.27 7.37-.69 1.35 1.07 2.76.09 4a2.94 2.94 0 0 0 .45 2.14c.72 1.63.15 4-.05 5.9z" style="isolation: isolate;"></path><path fill="#f5987e" d="M118.65 69H113c-1.83-1.2-3.6-5.41 0-10h5.67c3.6 4.59 1.83 8.8 0 10z"></path><path fill="#2a67b2" d="M95.6 56.29h.5v9.74h-.5z"></path><path fill="#0d2135" d="m94.737 56.839.498-.037.724 9.713-.499.037z"></path><path fill="#d69d48" d="m99.636 57.004.498.042-.81 9.706-.498-.042z"></path><path fill="#b75a42" d="m96.087 57.374.496-.068 1.316 9.65-.495.068z"></path><path fill="#fff" d="m98.675 57.005.5.01-.203 9.738-.5-.01z"></path><path fill="#0d2135" d="m97.977 56.567.5-.007.15 9.739-.5.007z"></path><path fill="#a0b4b7" d="M95 61h5v8h-5z"></path><path fill="#b9af9f" d="M40.97 69v45h2.8V72h64.02v-3z"></path><path fill="#b9af9f" d="M63.18 69v3H125v43h3V69z"></path><path fill="#7c8f81" d="M122 118h-.06a6.44 6.44 0 0 0-5.4-2.92H92.46a6.46 6.46 0 0 0 0 12.92H122a5 5 0 0 0 0-10"></path><path fill="#c0d1e2" d="m75.34 116.85-5.08 1.84-1.6-2-4-4.76 6.4-1a14.2 14.2 0 0 0 2.26 2.4z"></path><path fill="#56687a" d="M85.53 116.39a1.28 1.28 0 0 0-1.18-.48 17.1 17.1 0 0 1-9.41-1.85l-1.64-.65a1.77 1.77 0 0 0 .58 2.44 3.49 3.49 0 0 1-5.08.89v4.5a1.76 1.76 0 0 0 2.2 1.66l11.68-3.2a6 6 0 0 0 2.8-1.64 1.28 1.28 0 0 0 .05-1.67"></path><path fill="#c0d1e2" d="m50.24 121.46-5.38.43-1-2.3-2.27-4.89h6.08a14 14 0 0 0 1.54 2.91z"></path><path fill="#56687a" d="M60.19 123.62a1.26 1.26 0 0 0-1-.77 17.2 17.2 0 0 1-8.59-4.19l-1.41-1a1.76 1.76 0 0 0-.1 2.47 3.69 3.69 0 0 1-5.25-.51l-1.1 4.29a1.73 1.73 0 0 0 1.7 2.14h12.1a6.17 6.17 0 0 0 3.14-.82 1.25 1.25 0 0 0 .51-1.61"></path><path fill="#e0a675" d="M6 75.4V100l-2.57 26h-2L3 97V78.7l-.8-9.9L3.38 63A36.6 36.6 0 0 1 6 75.4"></path><path fill="#e0a675" d="M28.17 97H5.5v3h19.91l1.47 16H3.48l-.18 2h23.78l.62 8h1.94c-.31-5.93-1.14-22.86-1.47-29"></path><path fill="#945544" d="M6 97h21.37l-1.98-3.3L6 94z"></path><path fill="#b75a42" fill-rule="evenodd" d="M26.4 85.3h12.1a21.8 21.8 0 0 1 3.3-2.16 79 79 0 0 1-7-5.26c-3.43-3-6.15-9.08-6.15-9.08l-2.26-9C25.73 57.32 23.53 55 21 55h-2.3l6.74 29.81z"></path><path fill="#a3503b" fill-rule="evenodd" d="M24.7 61.62a10.4 10.4 0 0 0-2.7-5.08A4.83 4.83 0 0 0 18.17 55H8c-1.08 0-5 6-5 6v15.16A11.77 11.77 0 0 0 6 84l23.59-1.79z"></path><path fill="#e7ad82" d="M11.42 45v-.23a7.13 7.13 0 1 1 14.22-.16 7 7 0 0 1-.48 2.13c-.06.13-.12.26-.17.39a5.46 5.46 0 0 0-.29 2.51.83.83 0 0 1-.79.92h-.73c-.15.28-1 1.5-1.12 1.73-.65 1-2.43.78-4.08 1C17 53.36 17 55 17 55H7c1.08-.45 4.78-5.31 4.67-7.4-.05-.76-.16-1.63-.25-2.64z"></path><path fill="#69295a" d="m23.92 46.41-1.65 1.89.5.34 1.64-1.9"></path><path fill="#69295a" d="m23.72 47.52-3.06-2.77-.24.25 3.07 2.77"></path><path fill="#42292d" d="M25.48 36.68a2.76 2.76 0 0 0-2.48-2.2 13 13 0 0 1-1.38 0c-1.11-.13-2-1.16-3.15-1-.61.07-1.12.49-1.72.62s-1.3 0-1.93.07c-1.94.41-2.06 2.65-2.67 4.16-.34.68-1 1.21-1.15 2-.11.58.12 1.2 0 1.78a6 6 0 0 1-.69 1.34C9 45.84 11.55 48.6 14.09 47.9c.92-.26 1.78-1.86 1.87-3a2 2 0 1 1 3.92.58c3.87.23 6.88-1.62 7.66-3.35 1.02-1.93.46-5.13-2.06-5.45"></path><path fill="#b75a42" fill-rule="evenodd" d="M8 72V55a7.77 7.77 0 0 0-6.62 3A7.22 7.22 0 0 0 0 62.38v11.21C0 77 2.49 79.8 5.56 79.8H22v-6.09z"></path><path fill="#2f2f2f" fill-rule="evenodd" d="M38.45 67h-8a.55.55 0 0 0-.5.3l-4.78 10a.52.52 0 0 0 .5.71h8a.56.56 0 0 0 .5-.3c.69-1.46 3.74-7.83 4.77-10a.51.51 0 0 0-.49-.71"></path><path fill="#e7ad82" d="M27.46 73.08a5.8 5.8 0 0 0 1.8-1.46c1-.9 1.29 1.7 1.36 2.43A6.56 6.56 0 0 1 29 77.66 3 3 0 0 1 26.88 79H22v-5.25h2.34l3.13-2.12c.88-.27.33 1.08 0 1.45zm20.63 12.43h-9.56s-.68-3.65 4.12-3.47c1.47 0 2.39 1.26 3.23 1.8 1.04.64 1.86.72 2.21 1.67"></path><path fill="#c7882c" fill-rule="evenodd" d="M19.33 85c.35 3.65 1.1 6.58 2.83 8.43 4.5 4.83 9.24 3.79 9.24 3.79l14.91.28a3.24 3.24 0 0 1 2.29 1c3.11 3.32 13 14.29 13 14.29h11S61.1 95 56.5 88.06A6.56 6.56 0 0 0 51.3 85h-32z"></path><path fill="#d69d48" fill-rule="evenodd" d="M11.17 92.6c3.28 3.69 9.73 4.8 9.73 4.8h6.6L37 116h12s-9.29-22.16-12.64-30.93A5.14 5.14 0 0 0 31 81.8L5.94 84a28.4 28.4 0 0 0 5.23 8.6"></path><path fill="#56687a" fill-rule="evenodd" d="M89 33.5a1.5 1.5 0 0 0-1.5-1.5h-42a1.5 1.5 0 0 0-1.5 1.5v27a1.5 1.5 0 0 0 1.5 1.5h42a1.5 1.5 0 0 0 1.5-1.5z"></path><path fill="#38434f" fill-rule="evenodd" d="M58 67a3 3 0 0 0 2.33-1 5.4 5.4 0 0 0 .67-2.6V62h10v1.44a5.4 5.4 0 0 0 .67 2.6A3 3 0 0 0 74 67v1H58z"></path><path fill="#56687a" fill-rule="evenodd" d="M74 68H58v1h16z"></path><path fill="#fff" fill-rule="evenodd" d="M82 36H46v22h36z"></path><path fill="#0a66c2" d="M46 34h36v2H46z"></path><path fill="#f3f2ef" d="M82 34h5v24h-5z"></path><path fill="#e0eefa" d="M46 42h8v11h-8z"></path><path fill="#9ac6ea" d="M48 42h6v1h-6zm0 2h6v1h-6zm0 2h6v1h-6zm0 2h6v1h-6z"></path><path fill="#e0eefa" d="M46 38h8v2h-8z"></path><path fill="#fce2ba" d="M59 38h20v2H59z"></path><path fill="#d0e8ff" d="M78 43v12H60V43zm1-1H59v14h20z"></path><path fill="#945544" d="M125.15 112.41a.26.26 0 0 0-.4.32c1.45 2.25-1.34 5.71-5 2.45-1.24-2-4-3.18-6.77-3.18h-7.15a6.26 6.26 0 0 1-4.77-2 3.78 3.78 0 0 1-1-3.19 1 1 0 0 0 0-.2 3.23 3.23 0 0 0-1.16-2.7v1.06a1.69 1.69 0 0 0-1.18-1.16l.15.65a1.33 1.33 0 0 0-.87-.64l.13.45a2.54 2.54 0 0 0-2.89 1.28c-.57.81-2.84-.12-3.59-.14-1.41-.12 0 2.26.05 2.81.17 1 2.61 1.44 3.3 1.83 1.49.6 1.83 2.55 1.93 4.54s.55 1.4-2.78 2.85a9.9 9.9 0 0 0-3.15 1.67c-.78.78-1.64 2.36-.94 3 .55.53 1.28-.37 1.76-1.14a3.63 3.63 0 0 1 2.15-1.63 2 2 0 0 1 .7-.06c4.33.81 6.4.38 7.33-.5 4-3.7 3.78 1.17 12.86-1.11a11.45 11.45 0 0 1 6.81.1c5.26.8 6.44-3.45 4.48-5.36"></path><path fill="#6e3f33" d="M97.39 105.94h-1.06a1.39 1.39 0 0 0-1.18 2.06 5.22 5.22 0 0 0 3.41 2.4 6.73 6.73 0 0 0-.21-3.77 1 1 0 0 0-.96-.69"></path></g><g display="var(--svgDisplayDark)"><path fill="#56687a" d="M126.7 0C74.17 1.39 32 43.84 32 96h96V0z"></path><path fill="#a39a95" d="M119 37H94V4h25z"></path><path fill="#aeb48a" d="M115 32V19h-2.4a4 4 0 0 0-3.6 2.29l-2.47 5.17a3.9 3.9 0 0 0 3.6 5.54z"></path><path fill="#e4e8cc" d="m111 17.13-5.42 11.19a6.66 6.66 0 0 1-6 3.68H98v-9.66a3.47 3.47 0 0 1 3.53-3.4h4.56v-2.85a2.51 2.51 0 0 1 2.56-2.47 2.47 2.47 0 0 1 2.35 3.51"></path><path fill="#f5987e" d="M106 19h-8V8h8z"></path><rect width="8" height="5" x="107" y="8" fill="#aeb48a" rx="2.39" transform="rotate(-180 111 10.5)"></rect><path fill="#e4e8cc" d="M98 16.53A2.77 2.77 0 0 0 98 11z"></path><path fill="#09223b" d="M98 53h11v16H98z"></path><path fill="#9db88f" d="M116.52 61.22c1-15.29 6.47-21.6 8.47-20.36a1.59 1.59 0 0 1 .38 1.86c-.7 2.29-3.94 2.84-4.64 5.07-.14.74.2 1.54 0 2.26-.29.89-1.35 1.36-1.6 2.26s.3 1.74 0 2.57-2 2-2.23 3.07l-.39 3.27z"></path><path fill="#9db88f" d="M117.12 59.77c.8-4.94 5.93-7.32 6.48-6.66a.7.7 0 0 1 0 1c-.52.54-1.52.41-2 1.07-.26.41-.16 1-.48 1.37s-.53.33-.74.56c-.38.65-.53 1.15-1.38 1.35s-1.79.43-1.87 1.31zm-1.29.36c-1.09-9.93-5.06-12.89-5.06-12.89a1.05 1.05 0 0 0-1.67 1.23c.48 1.22 1.91 1.76 2.52 2.89a2.8 2.8 0 0 1 .27 2 1 1 0 0 0 .37.94 5.6 5.6 0 0 1 .87.81c.34.54.19 1.27.5 1.83s.79.73 1.21 1.08a3 3 0 0 1 1 2.12z"></path><path fill="#9db88f" d="M115.46 59.67a7.62 7.62 0 0 0-4-3.1 3 3 0 0 0-.57-.08.57.57 0 0 0-.23 1c.41.4 1.16-.11 1.44.36-.15 1.23 1.2.64 2 .81a2.35 2.35 0 0 1 1.44 1z"></path><path fill="#9db88f" d="M115.71 62.67c.61-4 .89-7.57 1.34-11.18a17.1 17.1 0 0 0 .25-4.76c-.49-2.44-.68-2.6-.4-4.51.54-3.69-.16-4.67-.74-5.76-.36-.66-1.5-1.29-2.16-.67-1.55 1.94 1.89 4.72.59 6.66a1.13 1.13 0 0 0-.64.77c-.67 2.61 3.47 5 1.27 7.37-.69 1.35 1.07 2.76.09 4a2.94 2.94 0 0 0 .45 2.14c.72 1.63.15 4-.05 5.9z"></path><path fill="#5d392f" d="M118.65 69H113c-1.83-1.2-3.6-5.41 0-10h5.67c3.6 4.59 1.83 8.8 0 10z"></path><path fill="#fff" d="M95.6 56.29h.5v9.74h-.5z"></path><path fill="#9db88f" d="m94.737 56.839.498-.037.724 9.713-.499.037z"></path><path fill="#d69d48" d="m99.636 57.004.498.042-.81 9.706-.498-.042z"></path><path fill="#e7ad82" d="m96.087 57.374.496-.068 1.316 9.65-.495.068z"></path><path fill="#fff" d="m98.675 57.005.5.01-.203 9.738-.5-.01z"></path><path fill="#0d2135" d="m97.977 56.567.5-.007.15 9.739-.5.007z"></path><path fill="#e4e8cc" d="M95 61h5v8h-5z"></path><path fill="#958b7b" d="M40.97 69v45h2.8V72h64.02v-3z"></path><path fill="#958b7b" d="M63.18 69v3H125v43h3V69z"></path><path fill="#9db88f" d="M122 118h-.06a6.44 6.44 0 0 0-5.4-2.92H92.46a6.46 6.46 0 0 0 0 12.92H122a5 5 0 0 0 0-10"></path><path fill="#56687a" d="m75.34 116.85-5.08 1.84-1.6-2-4-4.76 6.4-1a14.2 14.2 0 0 0 2.26 2.4z"></path><path fill="#b9af9f" d="M85.53 116.39a1.28 1.28 0 0 0-1.18-.48 17.1 17.1 0 0 1-9.41-1.85l-1.64-.65a1.77 1.77 0 0 0 .58 2.44 3.49 3.49 0 0 1-5.08.89v4.5a1.76 1.76 0 0 0 2.2 1.66l11.68-3.2a6 6 0 0 0 2.8-1.64 1.28 1.28 0 0 0 .05-1.67"></path><path fill="#56687a" d="m50.24 121.46-5.38.43-1-2.3-2.27-4.89h6.08a14 14 0 0 0 1.54 2.91z"></path><path fill="#b9af9f" d="M60.19 123.62a1.26 1.26 0 0 0-1-.77 17.2 17.2 0 0 1-8.59-4.19l-1.41-1a1.76 1.76 0 0 0-.1 2.47 3.69 3.69 0 0 1-5.25-.51l-1.1 4.29a1.73 1.73 0 0 0 1.7 2.14h12.1a6.17 6.17 0 0 0 3.14-.82 1.25 1.25 0 0 0 .51-1.61"></path><path fill="#e0a675" d="M6 75.4V100l-2.57 26h-2L3 97V78.7l-.8-9.9L3.38 63A36.6 36.6 0 0 1 6 75.4"></path><path fill="#e0a675" d="M28.17 97H5.5v3h19.91l1.47 16H3.48l-.18 2h23.78l.62 8h1.94c-.31-5.93-1.14-22.86-1.47-29"></path><path fill="#5d392f" d="M6 97h21.37l-1.98-3.3L6 94z"></path><path fill="#96493c" fill-rule="evenodd" d="M26.4 85.3h12.1a21.8 21.8 0 0 1 3.3-2.16 79 79 0 0 1-7-5.26c-3.43-3-6.15-9.08-6.15-9.08l-2.26-9C25.73 57.32 23.53 55 21 55h-2.3l6.74 29.81z"></path><path fill="#893d2e" fill-rule="evenodd" d="M24.7 61.62a10.4 10.4 0 0 0-2.7-5.08A4.83 4.83 0 0 0 18.17 55H8c-1.08 0-5 6-5 6v15.16A11.77 11.77 0 0 0 6 84l23.59-1.79z"></path><path fill="#e7ad82" d="M11.42 45v-.23a7.13 7.13 0 1 1 14.22-.16 7 7 0 0 1-.48 2.13c-.06.13-.12.26-.17.39a5.46 5.46 0 0 0-.29 2.51.83.83 0 0 1-.79.92h-.73c-.15.28-1 1.5-1.12 1.73-.65 1-2.43.78-4.08 1C17 53.36 17 55 17 55H7c1.08-.45 4.78-5.31 4.67-7.4-.05-.76-.16-1.63-.25-2.64z"></path><path fill="#69295a" d="m23.92 46.41-1.65 1.89.5.34 1.64-1.9"></path><path fill="#69295a" d="m23.72 47.52-3.06-2.77-.24.25 3.07 2.77"></path><path fill="#4f3a3e" d="M25.48 36.68a2.76 2.76 0 0 0-2.48-2.2 13 13 0 0 1-1.38 0c-1.11-.13-2-1.16-3.15-1-.61.07-1.12.49-1.72.62s-1.3 0-1.93.07c-1.94.41-2.06 2.65-2.67 4.16-.34.68-1 1.21-1.15 2-.11.58.12 1.2 0 1.78a6 6 0 0 1-.69 1.34C9 45.84 11.55 48.6 14.09 47.9c.92-.26 1.78-1.86 1.87-3a2 2 0 1 1 3.92.58c3.87.23 6.88-1.62 7.66-3.35 1.02-1.93.46-5.13-2.06-5.45"></path><path fill="#96493c" fill-rule="evenodd" d="M8 72V55a7.77 7.77 0 0 0-6.62 3A7.22 7.22 0 0 0 0 62.38v11.21C0 77 2.49 79.8 5.56 79.8H22v-6.09z"></path><path fill="#dce6f1" fill-rule="evenodd" d="M38.45 67h-8a.55.55 0 0 0-.5.3l-4.78 10a.52.52 0 0 0 .5.71h8a.56.56 0 0 0 .5-.3c.69-1.46 3.74-7.83 4.77-10a.51.51 0 0 0-.49-.71"></path><path fill="#e7ad82" d="M27.46 73.08a5.8 5.8 0 0 0 1.8-1.46c1-.9 1.29 1.7 1.36 2.43A6.56 6.56 0 0 1 29 77.66 3 3 0 0 1 26.88 79H22v-5.25h2.34l3.13-2.12c.88-.27.33 1.08 0 1.45zm20.63 12.43h-9.56s-.68-3.65 4.12-3.47c1.47 0 2.39 1.26 3.23 1.8 1.04.64 1.86.72 2.21 1.67"></path><path fill="#c7882c" fill-rule="evenodd" d="M19.33 85c.35 3.65 1.1 6.58 2.83 8.43 4.5 4.83 9.24 3.79 9.24 3.79l14.91.28a3.24 3.24 0 0 1 2.29 1c3.11 3.32 13 14.29 13 14.29h11S61.1 95 56.5 88.06A6.56 6.56 0 0 0 51.3 85h-32z"></path><path fill="#d69d48" fill-rule="evenodd" d="M11.17 92.6c3.28 3.69 9.73 4.8 9.73 4.8h6.6L37 116h12s-9.29-22.16-12.64-30.93A5.14 5.14 0 0 0 31 81.8L5.94 84a28.4 28.4 0 0 0 5.23 8.6"></path><path fill="#9db3c8" fill-rule="evenodd" d="M89 33.5a1.5 1.5 0 0 0-1.5-1.5h-42a1.5 1.5 0 0 0-1.5 1.5v27a1.5 1.5 0 0 0 1.5 1.5h42a1.5 1.5 0 0 0 1.5-1.5z"></path><path fill="#788fa5" fill-rule="evenodd" d="M58 67a3 3 0 0 0 2.33-1 5.4 5.4 0 0 0 .67-2.6V62h10v1.44a5.4 5.4 0 0 0 .67 2.6A3 3 0 0 0 74 67v1H58z"></path><path fill="#9db3c8" fill-rule="evenodd" d="M74 68H58v1h16z"></path><path fill="#38434f" fill-rule="evenodd" d="M82 36H46v22h36z"></path><path fill="#0a66c2" d="M46 34h36v2H46z"></path><path fill="#38434f" d="M82 34h5v24h-5z"></path><path fill="#56687a" d="M46 42h8v11h-8z"></path><path fill="#788fa5" d="M48 42h6v1h-6zm0 2h6v1h-6zm0 2h6v1h-6zm0 2h6v1h-6zm-2-10h8v2h-8z"></path><path fill="#958b7b" d="M59 38h20v2H59z"></path><path fill="#788fa5" d="M78 43v12H60V43zm1-1H59v14h20z"></path><path fill="#945544" d="M125.15 112.41a.26.26 0 0 0-.4.32c1.45 2.25-1.34 5.71-5 2.45-1.24-2-4-3.18-6.77-3.18h-7.15a6.26 6.26 0 0 1-4.77-2 3.78 3.78 0 0 1-1-3.19 1 1 0 0 0 0-.2 3.23 3.23 0 0 0-1.16-2.7v1.06a1.69 1.69 0 0 0-1.18-1.16l.15.65a1.33 1.33 0 0 0-.87-.64l.13.45a2.54 2.54 0 0 0-2.89 1.28c-.57.81-2.84-.12-3.59-.14-1.41-.12 0 2.26.05 2.81.17 1 2.61 1.44 3.3 1.83 1.49.6 1.83 2.55 1.93 4.54s.55 1.4-2.78 2.85a9.9 9.9 0 0 0-3.15 1.67c-.78.78-1.64 2.36-.94 3 .55.53 1.28-.37 1.76-1.14a3.63 3.63 0 0 1 2.15-1.63 2 2 0 0 1 .7-.06c4.33.81 6.4.38 7.33-.5 4-3.7 3.78 1.17 12.86-1.11a11.45 11.45 0 0 1 6.81.1c5.26.8 6.44-3.45 4.48-5.36"></path><path fill="#6e3f33" d="M97.39 105.94h-1.06a1.39 1.39 0 0 0-1.18 2.06 5.22 5.22 0 0 0 3.41 2.4 6.73 6.73 0 0 0-.21-3.77 1 1 0 0 0-.96-.69"></path></g></svg>